<svg width="294" height="87" viewBox="0 0 294 87" fill="none" xmlns="http://www.w3.org/2000/svg">
<g clip-path="url(#clip0_94_6029)">
<path d="M270.283 0.000160538H23.5581C22.6587 0.000160538 21.7702 0.000160539 20.8732 0.00450836C20.1224 0.00885619 19.3775 0.0214866 18.6194 0.0321171C16.9726 0.0492949 15.3296 0.177718 13.7048 0.416269C12.0823 0.660014 10.5106 1.11954 9.04285 1.77931C7.57692 2.44466 6.23746 3.30922 5.07306 4.34162C3.90254 5.37111 2.92683 6.56107 2.18343 7.86573C1.43799 9.16779 0.921091 10.5631 0.6506 12.0034C0.377537 13.4419 0.2306 14.8969 0.211106 16.3556C0.188347 17.0221 0.185943 17.6908 0.17395 18.3574V68.6058C0.185943 69.2808 0.188347 69.9347 0.211106 70.6099C0.230606 72.0685 0.377543 73.5235 0.6506 74.9619C0.920344 76.403 1.43727 77.7991 2.18343 79.1017C2.92649 80.4021 3.90234 81.5873 5.07306 82.611C6.23304 83.648 7.57337 84.5132 9.04285 85.1734C10.5106 85.835 12.0821 86.2972 13.7048 86.5447C15.3299 86.7814 16.9727 86.9098 18.6194 86.9291C19.3775 86.9439 20.1224 86.9523 20.8732 86.9523C21.7701 86.9567 22.6588 86.9567 23.5581 86.9567H270.283C271.165 86.9567 272.06 86.9567 272.942 86.9523C273.689 86.9523 274.455 86.9439 275.203 86.9291C276.846 86.9109 278.486 86.7824 280.108 86.5447C281.736 86.2955 283.313 85.8333 284.788 85.1734C286.256 84.5128 287.595 83.6477 288.754 82.611C289.922 81.5832 290.899 80.399 291.652 79.1017C292.392 77.7982 292.904 76.4022 293.17 74.9619C293.444 73.5233 293.596 72.0686 293.625 70.6099C293.635 69.9347 293.635 69.2808 293.635 68.6058C293.654 67.816 293.654 67.0306 293.654 66.228V20.7309C293.654 19.9348 293.654 19.145 293.635 18.3574C293.635 17.6908 293.635 17.0221 293.625 16.3555C293.596 14.8967 293.444 13.442 293.17 12.0033C292.904 10.5638 292.392 9.16865 291.652 7.86564C290.138 5.25059 287.737 3.12195 284.788 1.77912C283.313 1.12096 281.735 0.661553 280.108 0.416074C278.486 0.176471 276.846 0.0480035 275.203 0.0318127C274.455 0.021204 273.689 0.00846489 272.942 0.00422576C272.06 -0.00012207 271.165 -0.00012207 270.283 -0.00012207V0.000160538Z" fill="#A6A6A6"/>
<path d="M20.8852 85.0543C20.138 85.0543 19.4088 85.0459 18.6674 85.0311C17.1316 85.0133 15.5993 84.8948 14.0833 84.6765C12.6696 84.4607 11.3001 84.0593 10.0201 83.4854C8.75171 82.9164 7.59488 82.1702 6.59387 81.2754C5.57838 80.3912 4.73293 79.3657 4.09104 78.2396C3.44207 77.1061 2.99295 75.8911 2.75932 74.637C2.50701 73.2894 2.3705 71.9268 2.35097 70.5609C2.33542 70.1024 2.31506 68.5759 2.31506 68.5759V18.3572C2.31506 18.3572 2.33674 16.8542 2.35109 16.4126C2.36979 15.0489 2.50551 13.6884 2.75706 12.3429C2.99113 11.0853 3.4406 9.86683 4.08991 8.72962C4.72945 7.60421 5.5702 6.57794 6.57958 5.6906C7.58782 4.79482 8.74835 4.04478 10.0189 3.46783C11.296 2.89584 12.6629 2.49723 14.0737 2.28536C15.5947 2.06485 17.1323 1.94563 18.6734 1.9287L20.8864 1.90216H272.93L275.169 1.92977C276.696 1.94585 278.22 2.06401 279.727 2.28323C281.152 2.49776 282.533 2.89915 283.825 3.4742C286.37 4.63691 288.441 6.47643 289.748 8.73492C290.387 9.86429 290.829 11.0728 291.06 12.3195C291.315 13.6761 291.457 15.0472 291.486 16.4222C291.494 17.0378 291.494 17.6991 291.494 18.3572C291.513 19.1725 291.513 19.9484 291.513 20.7307V66.2278C291.513 67.0176 291.513 67.7883 291.494 68.5652C291.494 69.2722 291.494 69.9198 291.484 70.5863C291.455 71.9367 291.315 73.2834 291.065 74.6156C290.836 75.8788 290.389 77.1033 289.74 78.2461C289.094 79.36 288.253 80.3767 287.25 81.2585C286.248 82.158 285.089 82.9086 283.818 83.4813C282.529 84.0595 281.15 84.4625 279.727 84.6765C278.211 84.896 276.678 85.0145 275.143 85.0311C274.424 85.0459 273.672 85.0543 272.942 85.0543L270.283 85.0587L20.8852 85.0543Z" fill="black"/>
<path d="M60.9204 44.1319C60.9468 42.3175 61.4905 40.5384 62.501 38.9602C63.5115 37.3821 64.956 36.0561 66.6999 35.1057C65.592 33.7032 64.1305 32.549 62.4313 31.7347C60.7321 30.9205 58.8421 30.4687 56.9115 30.4151C52.7931 30.0319 48.8005 32.5995 46.7018 32.5995C44.5626 32.5995 41.3314 30.4532 37.8519 30.5166C35.6013 30.5811 33.4078 31.1612 31.4854 32.2004C29.5629 33.2397 27.9769 34.7027 26.8819 36.4468C22.1387 43.7259 25.6767 54.4239 30.2203 60.3078C32.4935 63.189 35.1503 66.4074 38.6267 66.2932C42.0285 66.1682 43.299 64.3705 47.4053 64.3705C51.4734 64.3705 52.6654 66.2932 56.2123 66.2207C59.8626 66.1682 62.1625 63.3267 64.356 60.4182C65.9893 58.3652 67.2461 56.0963 68.0799 53.6954C65.9592 52.9003 64.1494 51.5695 62.8763 49.8688C61.6031 48.1682 60.9229 46.173 60.9204 44.1319V44.1319Z" fill="white"/>
<path d="M54.221 26.5455C56.2112 24.4276 57.1918 21.7055 56.9543 18.9572C53.9136 19.2403 51.1048 20.5284 49.0877 22.565C48.1014 23.56 47.346 24.7174 46.8647 25.9713C46.3834 27.2251 46.1856 28.5508 46.2827 29.8724C47.8036 29.8863 49.3082 29.5941 50.6833 29.0178C52.0583 28.4415 53.2679 27.5962 54.221 26.5455Z" fill="white"/>
<path d="M103.922 58.9993H92.3127L89.5249 66.2959H84.6078L95.6035 39.3003H100.712L111.708 66.2959H106.707L103.922 58.9993ZM93.515 55.6323H102.717L98.1807 43.7904H98.0538L93.515 55.6323Z" fill="white"/>
<path d="M135.455 56.456C135.455 62.5723 131.761 66.5019 126.188 66.5019C124.776 66.5673 123.372 66.2791 122.137 65.6701C120.901 65.0611 119.884 64.156 119.202 63.0584H119.096V72.8071H114.539V46.614H118.95V49.8876H119.034C119.748 48.7953 120.782 47.8949 122.027 47.2822C123.272 46.6694 124.681 46.3674 126.104 46.408C131.74 46.4081 135.455 50.3568 135.455 56.456ZM130.77 56.456C130.77 52.4713 128.447 49.8515 124.902 49.8515C121.42 49.8515 119.077 52.5264 119.077 56.456C119.077 60.4217 121.42 63.0776 124.902 63.0776C128.447 63.0776 130.77 60.4769 130.77 56.456Z" fill="white"/>
<path d="M159.894 56.456C159.894 62.5723 156.201 66.5019 150.627 66.5019C149.216 66.5673 147.811 66.2791 146.576 65.6701C145.34 65.0611 144.323 64.156 143.641 63.0584H143.536V72.807H138.978V46.614H143.389V49.8876H143.473C144.187 48.7953 145.221 47.8948 146.466 47.2821C147.711 46.6694 149.12 46.3674 150.543 46.408C156.179 46.408 159.894 50.3567 159.894 56.456ZM155.209 56.456C155.209 52.4712 152.886 49.8515 149.341 49.8515C145.859 49.8515 143.516 52.5264 143.516 56.456C143.516 60.4217 145.859 63.0775 149.341 63.0775C152.886 63.0775 155.209 60.4769 155.209 56.456H155.209Z" fill="white"/>
<path d="M176.046 58.7743C176.384 61.4513 179.318 63.209 183.327 63.209C187.169 63.209 189.933 61.4512 189.933 59.0374C189.933 56.942 188.266 55.6874 184.319 54.8276L180.371 53.9848C174.779 52.7874 172.183 50.4691 172.183 46.7072C172.183 42.0495 176.762 38.8502 183.265 38.8502C189.7 38.8502 194.112 42.0495 194.26 46.7072H189.659C189.384 44.0132 186.872 42.387 183.2 42.387C179.528 42.387 177.016 44.0323 177.016 46.427C177.016 48.3356 178.621 49.4586 182.546 50.3183L185.902 51.0486C192.15 52.3585 194.747 54.5834 194.747 58.5321C194.747 63.5826 190.208 66.7458 182.989 66.7458C176.235 66.7458 171.675 63.6569 171.38 58.7741L176.046 58.7743Z" fill="white"/>
<path d="M204.583 41.9562V46.614H208.806V49.8133H204.583V60.6637C204.583 62.3493 205.429 63.1348 207.285 63.1348C207.786 63.1271 208.286 63.0959 208.784 63.0414V66.2216C207.95 66.3598 207.101 66.4224 206.252 66.4084C201.757 66.4084 200.004 64.9117 200.004 61.0946V49.8133H196.775V46.614H200.004V41.9562H204.583Z" fill="white"/>
<path d="M211.251 56.456C211.251 50.2634 215.366 46.372 221.782 46.372C228.22 46.372 232.316 50.2633 232.316 56.456C232.316 62.6657 228.242 66.5401 221.782 66.5401C215.325 66.5401 211.251 62.6657 211.251 56.456ZM227.672 56.456C227.672 52.208 225.475 49.7008 221.782 49.7008C218.089 49.7008 215.895 52.2271 215.895 56.456C215.895 60.7211 218.089 63.2092 221.782 63.2092C225.475 63.2092 227.671 60.7211 227.671 56.456H227.672Z" fill="white"/>
<path d="M236.073 46.614H240.42V49.964H240.526C240.82 48.9177 241.511 47.9931 242.484 47.3455C243.457 46.6979 244.651 46.3669 245.867 46.408C246.392 46.4064 246.916 46.457 247.428 46.5588V50.3376C246.765 50.158 246.073 50.0756 245.38 50.0935C244.718 50.0697 244.058 50.1732 243.445 50.3968C242.833 50.6205 242.282 50.9591 241.831 51.3893C241.379 51.8194 241.039 52.3311 240.831 52.8891C240.624 53.4471 240.556 54.0381 240.631 54.6218V66.2959H236.073L236.073 46.614Z" fill="white"/>
<path d="M268.442 60.5152C267.829 64.0881 263.904 66.5401 258.881 66.5401C252.422 66.5401 248.413 62.7039 248.413 56.5495C248.413 50.3759 252.443 46.372 258.69 46.372C264.833 46.372 268.696 50.1126 268.696 56.0803V57.4645H253.014V57.7086C252.941 58.4329 253.043 59.1626 253.314 59.8493C253.584 60.5359 254.016 61.1637 254.581 61.6909C255.146 62.2182 255.831 62.6329 256.59 62.9075C257.35 63.1821 258.167 63.3102 258.987 63.2835C260.064 63.3729 261.145 63.1518 262.069 62.653C262.992 62.1543 263.71 61.4044 264.115 60.5151L268.442 60.5152ZM253.035 54.6409H264.136C264.177 53.9896 264.066 53.3379 263.809 52.7265C263.552 52.1152 263.156 51.5575 262.644 51.0885C262.133 50.6194 261.518 50.2491 260.837 50.0008C260.157 49.7525 259.425 49.6316 258.69 49.6456C257.948 49.6417 257.212 49.7681 256.525 50.0175C255.838 50.2669 255.214 50.6345 254.688 51.0989C254.162 51.5633 253.746 52.1154 253.462 52.7234C253.178 53.3313 253.033 53.983 253.035 54.6409V54.6409Z" fill="white"/>
</g>
<path d="M87.2695 33V18.7812H91.6445C92.8945 18.7812 94.0111 19.0645 94.9941 19.6309C95.9837 20.1908 96.7552 20.9915 97.3086 22.0332C97.862 23.0684 98.1387 24.2467 98.1387 25.5684V26.2227C98.1387 27.5443 97.8652 28.7194 97.3184 29.748C96.778 30.7767 96.013 31.5742 95.0234 32.1406C94.0339 32.707 92.9173 32.9935 91.6738 33H87.2695ZM90.1992 21.1543V30.6465H91.6152C92.7611 30.6465 93.6367 30.2721 94.2422 29.5234C94.8477 28.7747 95.1569 27.7038 95.1699 26.3105V25.5586C95.1699 24.1133 94.8704 23.0195 94.2715 22.2773C93.6725 21.5286 92.7969 21.1543 91.6445 21.1543H90.1992ZM103.393 33H100.463V18.7812H103.393V33ZM113.49 29.2695C113.49 28.7161 113.295 28.293 112.904 28C112.514 27.7005 111.811 27.388 110.795 27.0625C109.779 26.7305 108.975 26.4049 108.383 26.0859C106.768 25.2135 105.961 24.0384 105.961 22.5605C105.961 21.7923 106.176 21.1087 106.605 20.5098C107.042 19.9043 107.663 19.4323 108.471 19.0938C109.285 18.7552 110.196 18.5859 111.205 18.5859C112.221 18.5859 113.126 18.7715 113.92 19.1426C114.714 19.5072 115.329 20.0247 115.766 20.6953C116.208 21.3659 116.43 22.1276 116.43 22.9805H113.5C113.5 22.3294 113.295 21.8249 112.885 21.4668C112.475 21.1022 111.898 20.9199 111.156 20.9199C110.44 20.9199 109.883 21.0729 109.486 21.3789C109.089 21.6784 108.891 22.0755 108.891 22.5703C108.891 23.0326 109.122 23.4199 109.584 23.7324C110.053 24.0449 110.74 24.3379 111.645 24.6113C113.311 25.1126 114.525 25.7344 115.287 26.4766C116.049 27.2188 116.43 28.1432 116.43 29.25C116.43 30.4805 115.964 31.4473 115.033 32.1504C114.102 32.847 112.849 33.1953 111.273 33.1953C110.18 33.1953 109.184 32.9967 108.285 32.5996C107.387 32.196 106.7 31.6458 106.225 30.9492C105.756 30.2526 105.521 29.4453 105.521 28.5273H108.461C108.461 30.0964 109.398 30.8809 111.273 30.8809C111.97 30.8809 112.514 30.7409 112.904 30.4609C113.295 30.1745 113.49 29.7773 113.49 29.2695ZM121.352 27.9902V33H118.422V18.7812H123.969C125.036 18.7812 125.974 18.9766 126.781 19.3672C127.595 19.7578 128.22 20.3145 128.656 21.0371C129.092 21.7533 129.311 22.5703 129.311 23.4883C129.311 24.8815 128.832 25.9818 127.875 26.7891C126.924 27.5898 125.606 27.9902 123.92 27.9902H121.352ZM121.352 25.6172H123.969C124.743 25.6172 125.333 25.4349 125.736 25.0703C126.146 24.7057 126.352 24.1849 126.352 23.5078C126.352 22.8112 126.146 22.248 125.736 21.8184C125.326 21.3887 124.76 21.1673 124.037 21.1543H121.352V25.6172ZM143.012 26.2129C143.012 27.6126 142.764 28.8398 142.27 29.8945C141.775 30.9492 141.065 31.763 140.141 32.3359C139.223 32.9089 138.168 33.1953 136.977 33.1953C135.798 33.1953 134.747 32.9121 133.822 32.3457C132.898 31.7793 132.182 30.972 131.674 29.9238C131.166 28.8691 130.909 27.6582 130.902 26.291V25.5879C130.902 24.1882 131.153 22.9577 131.654 21.8965C132.162 20.8288 132.875 20.0117 133.793 19.4453C134.717 18.8724 135.772 18.5859 136.957 18.5859C138.142 18.5859 139.193 18.8724 140.111 19.4453C141.036 20.0117 141.749 20.8288 142.25 21.8965C142.758 22.9577 143.012 24.1849 143.012 25.5781V26.2129ZM140.043 25.5684C140.043 24.0775 139.776 22.9447 139.242 22.1699C138.708 21.3952 137.947 21.0078 136.957 21.0078C135.974 21.0078 135.215 21.3919 134.682 22.1602C134.148 22.9219 133.878 24.0417 133.871 25.5195V26.2129C133.871 27.6647 134.138 28.791 134.672 29.5918C135.206 30.3926 135.974 30.793 136.977 30.793C137.96 30.793 138.715 30.4089 139.242 29.6406C139.77 28.8659 140.036 27.7396 140.043 26.2617V25.5684ZM156.703 33H153.773L148.07 23.6445V33H145.141V18.7812H148.07L153.783 28.1562V18.7812H156.703V33ZM162.377 33H159.447V18.7812H162.377V33ZM165.102 33V18.7812H170.082C171.807 18.7812 173.116 19.1133 174.008 19.7773C174.9 20.4349 175.346 21.4017 175.346 22.6777C175.346 23.3743 175.167 23.9896 174.809 24.5234C174.451 25.0508 173.952 25.4382 173.314 25.6855C174.044 25.8678 174.617 26.2357 175.033 26.7891C175.456 27.3424 175.668 28.0195 175.668 28.8203C175.668 30.1875 175.232 31.2227 174.359 31.9258C173.487 32.6289 172.243 32.987 170.629 33H165.102ZM168.031 26.8086V30.6465H170.541C171.231 30.6465 171.768 30.4837 172.152 30.1582C172.543 29.8262 172.738 29.3704 172.738 28.791C172.738 27.4889 172.064 26.8281 170.717 26.8086H168.031ZM168.031 24.7383H170.199C171.677 24.7122 172.416 24.123 172.416 22.9707C172.416 22.3262 172.227 21.8639 171.85 21.584C171.479 21.2975 170.889 21.1543 170.082 21.1543H168.031V24.7383ZM180.805 30.6465H187.025V33H177.875V18.7812H180.805V30.6465ZM197.27 26.8379H191.645V30.6465H198.246V33H188.715V18.7812H198.227V21.1543H191.645V24.543H197.27V26.8379ZM213.5 26.8379H207.875V30.6465H214.477V33H204.945V18.7812H214.457V21.1543H207.875V24.543H213.5V26.8379ZM227.758 33H224.828L219.125 23.6445V33H216.195V18.7812H219.125L224.838 28.1562V18.7812H227.758V33Z" fill="white"/>
<defs>
<clipPath id="clip0_94_6029">
<rect width="293.48" height="86.9565" fill="white" transform="translate(0.17395)"/>
</clipPath>
</defs>
</svg>
