<svg width="52" height="69" viewBox="0 0 52 69" fill="none" xmlns="http://www.w3.org/2000/svg">
<path d="M16 55.7511C13.794 55.7511 12 57.7923 12 60.3022C12 62.8122 13.794 64.8533 16 64.8533C18.206 64.8533 20 62.8122 20 60.3022C20 57.7923 18.206 55.7511 16 55.7511ZM16 62.5778C14.897 62.5778 14 61.5572 14 60.3022C14 59.0473 14.897 58.0267 16 58.0267C17.103 58.0267 18 59.0473 18 60.3022C18 61.5572 17.103 62.5778 16 62.5778Z" fill="#FF9F37"/>
<path d="M13 5.6889H17C17.552 5.6889 18 5.18031 18 4.55112C18 3.92192 17.552 3.41333 17 3.41333H13C12.448 3.41333 12 3.92192 12 4.55112C12 5.18031 12.448 5.6889 13 5.6889Z" fill="#FF9F37"/>
<path d="M20 5.6889H21C21.552 5.6889 22 5.18031 22 4.55112C22 3.92192 21.552 3.41333 21 3.41333H20C19.448 3.41333 19 3.92192 19 4.55112C19 5.18031 19.448 5.6889 20 5.6889Z" fill="#FF9F37"/>
<path d="M52 13.6533H34V5.01191C34 2.24939 32.024 0 29.595 0H4.405C1.976 0 0 2.24939 0 5.01191V63.2536C0 66.0173 1.976 68.2667 4.405 68.2667H29.594C32.024 68.2667 34 66.0173 34 63.2548V37.5467H52V13.6533ZM4.405 2.27556H29.594C30.921 2.27556 32 3.50322 32 5.01191V6.82667H2V5.01191C2 3.50322 3.079 2.27556 4.405 2.27556ZM29.595 65.9911H4.405C3.079 65.9911 2 64.7634 2 63.2548V54.6133H32V63.2548C32 64.7634 30.921 65.9911 29.595 65.9911ZM32 52.3378H2V9.10222H32V13.6533H14V37.5467H18V45.5111L27.333 37.5467H32V52.3378ZM50 35.2711H34H26.667L20 40.96V35.2711H16V15.9289H34H50V35.2711Z" fill="#FF9F37"/>
<path d="M21 23.8934H31C31.552 23.8934 32 23.3848 32 22.7556C32 22.1264 31.552 21.6178 31 21.6178H21C20.448 21.6178 20 22.1264 20 22.7556C20 23.3848 20.448 23.8934 21 23.8934Z" fill="#FF9F37"/>
<path d="M20 28.4444C20 29.0736 20.448 29.5822 21 29.5822H45C45.552 29.5822 46 29.0736 46 28.4444C46 27.8152 45.552 27.3066 45 27.3066H21C20.448 27.3066 20 27.8152 20 28.4444Z" fill="#FF9F37"/>
</svg>
