<svg width="115" height="115" viewBox="0 0 115 115" fill="none" xmlns="http://www.w3.org/2000/svg">
<g filter="url(#filter0_d_26_9269)">
<path d="M57.5 107C87.0472 107 111 83.0472 111 53.5C111 23.9528 87.0472 0 57.5 0C27.9528 0 4 23.9528 4 53.5C4 83.0472 27.9528 107 57.5 107Z" fill="#F0F0F0"/>
<path d="M111 53.5C111 83.047 87.0471 107 57.5 107C27.953 107 4 83.047 4 53.5C4 23.953 57.5 53.5 57.5 53.5C57.5 53.5 97.993 53.5 111 53.5Z" fill="#D80027"/>
<path d="M4 53.5C4 23.953 27.953 0 57.5 0V53.5C57.5 53.5 22.6086 53.5 4 53.5Z" fill="#0052B4"/>
<path d="M35.8469 18.6086L39.3112 29.2706H50.5218L41.4523 35.8599L44.9164 46.5218L35.8469 39.9324L26.7774 46.5218L30.2415 35.8599L21.172 29.2706H32.3826L35.8469 18.6086Z" fill="#F0F0F0"/>
</g>
<defs>
<filter id="filter0_d_26_9269" x="0" y="0" width="115" height="115" filterUnits="userSpaceOnUse" color-interpolation-filters="sRGB">
<feFlood flood-opacity="0" result="BackgroundImageFix"/>
<feColorMatrix in="SourceAlpha" type="matrix" values="0 0 0 0 0 0 0 0 0 0 0 0 0 0 0 0 0 0 127 0" result="hardAlpha"/>
<feOffset dy="4"/>
<feGaussianBlur stdDeviation="2"/>
<feComposite in2="hardAlpha" operator="out"/>
<feColorMatrix type="matrix" values="0 0 0 0 0 0 0 0 0 0 0 0 0 0 0 0 0 0 0.25 0"/>
<feBlend mode="normal" in2="BackgroundImageFix" result="effect1_dropShadow_26_9269"/>
<feBlend mode="normal" in="SourceGraphic" in2="effect1_dropShadow_26_9269" result="shape"/>
</filter>
</defs>
</svg>
