<svg width="115" height="115" viewBox="0 0 115 115" fill="none" xmlns="http://www.w3.org/2000/svg">
<g clip-path="url(#clip0_26_9274)" filter="url(#filter0_d_26_9274)">
<path d="M4 53.5C4 23.953 27.953 0 57.5 0C87.0471 0 111 23.953 111 53.5L57.5 58.1522L4 53.5Z" fill="#FFDA44"/>
<path d="M11.159 80.25C20.4097 96.2407 37.6977 107 57.5 107C77.3023 107 94.5903 96.2407 103.841 80.25L57.5 76.7608L11.159 80.25Z" fill="#D80027"/>
<path d="M103.841 80.25C108.393 72.3809 111 63.2452 111 53.5H4C4 63.2452 6.60687 72.3809 11.159 80.25H103.841Z" fill="#0052B4"/>
</g>
<defs>
<filter id="filter0_d_26_9274" x="0" y="0" width="115" height="115" filterUnits="userSpaceOnUse" color-interpolation-filters="sRGB">
<feFlood flood-opacity="0" result="BackgroundImageFix"/>
<feColorMatrix in="SourceAlpha" type="matrix" values="0 0 0 0 0 0 0 0 0 0 0 0 0 0 0 0 0 0 127 0" result="hardAlpha"/>
<feOffset dy="4"/>
<feGaussianBlur stdDeviation="2"/>
<feComposite in2="hardAlpha" operator="out"/>
<feColorMatrix type="matrix" values="0 0 0 0 0 0 0 0 0 0 0 0 0 0 0 0 0 0 0.25 0"/>
<feBlend mode="normal" in2="BackgroundImageFix" result="effect1_dropShadow_26_9274"/>
<feBlend mode="normal" in="SourceGraphic" in2="effect1_dropShadow_26_9274" result="shape"/>
</filter>
<clipPath id="clip0_26_9274">
<rect width="107" height="107" fill="white" transform="translate(4)"/>
</clipPath>
</defs>
</svg>
