<svg width="53" height="64" viewBox="0 0 53 64" fill="none" xmlns="http://www.w3.org/2000/svg">
<path fill-rule="evenodd" clip-rule="evenodd" d="M11.1317 54.144C11.4094 53.6502 11.9992 53.5333 12.4491 53.8829C16.683 57.173 21.6342 58.9115 26.5965 58.8506C31.5588 58.7897 36.2788 56.9323 40.0832 53.5435C40.4874 53.1834 41.0913 53.2857 41.4321 53.7718C41.7728 54.258 41.7214 54.944 41.3172 55.304C37.2045 58.9675 32.1019 60.9754 26.7374 61.0413C21.3729 61.1072 16.0204 59.2277 11.4433 55.671C10.9935 55.3214 10.854 54.6377 11.1317 54.144Z" fill="#FF9F37"/>
<path fill-rule="evenodd" clip-rule="evenodd" d="M13.6589 19.0291C7.22693 19.1167 1.95108 24.4853 1.875 31.0201C1.79891 37.555 6.9514 42.7816 13.3834 42.694C19.8154 42.6065 25.0912 37.2379 25.1673 30.703C25.2434 24.1681 20.0909 18.9416 13.6589 19.0291ZM0.384955 31.0404C0.470774 23.6694 6.42163 17.614 13.6766 17.5152C20.9315 17.4165 26.7432 23.3118 26.6574 30.6827C26.5716 38.0537 20.6207 44.1091 13.3658 44.2079C6.11085 44.3067 0.299136 38.4114 0.384955 31.0404Z" fill="#FF9F37"/>
<path fill-rule="evenodd" clip-rule="evenodd" d="M38.515 20.3497C31.839 20.3284 26.444 25.3922 26.4647 31.6599C26.4855 37.9277 31.9143 43.0259 38.5903 43.0472C45.2662 43.0684 50.6613 38.0047 50.6405 31.7369C50.6197 25.4692 45.191 20.3709 38.515 20.3497ZM24.9182 31.655C24.8947 24.5853 30.9801 18.8737 38.5102 18.8977C46.0403 18.9217 52.1636 24.6722 52.1871 31.7419C52.2105 38.8115 46.1252 44.5232 38.5951 44.4992C31.065 44.4752 24.9416 38.7247 24.9182 31.655Z" fill="#FF9F37"/>
<path d="M6.74987 52.1074L8.55455 57.5293C8.63592 57.7748 8.7924 58.0015 9.00826 58.1865C9.22412 58.3716 9.49175 58.5085 9.78418 58.5835C10.0766 58.6584 10.3835 58.6689 10.6741 58.6137C10.9646 58.5585 11.2286 58.4397 11.4393 58.2691L16.094 54.5C16.3092 54.3301 16.4633 54.1132 16.5405 53.8715C16.6177 53.6297 16.6152 53.3718 16.5332 53.1241C16.4513 52.8764 16.2929 52.6479 16.0743 52.4619C15.8557 52.2758 15.5846 52.139 15.2889 52.0655L8.82949 50.4127C8.53544 50.3364 8.22645 50.3254 7.93403 50.3809C7.64161 50.4364 7.3762 50.5564 7.16484 50.7287C6.95347 50.9009 6.80373 51.1193 6.73083 51.3614C6.65794 51.6036 6.66449 51.861 6.74987 52.1074V52.1074Z" fill="#FF9F37"/>
<path fill-rule="evenodd" clip-rule="evenodd" d="M40.2205 9.19736C39.9335 9.68578 39.3415 9.79148 38.8984 9.43346C34.7275 6.06384 29.8101 4.23191 24.8475 4.19894C19.8849 4.16597 15.1306 5.93367 11.2628 9.24989C10.8519 9.60224 10.25 9.48861 9.91849 8.99608C9.587 8.50356 9.65141 7.81866 10.0624 7.46631C14.2437 3.88131 19.3833 1.97033 24.7481 2.00597C30.1129 2.04161 35.4289 4.02202 39.9378 7.66475C40.381 8.02278 40.5075 8.70895 40.2205 9.19736Z" fill="#FF9F37"/>
<path d="M44.563 11.3165L42.8612 5.8614C42.7845 5.61444 42.6324 5.38485 42.42 5.19575C42.2077 5.00665 41.9427 4.86471 41.6518 4.78419C41.3608 4.70368 41.0541 4.68743 40.7626 4.7371C40.471 4.78678 40.2049 4.90062 39.991 5.06715L35.2658 8.74755C35.0474 8.91328 34.8892 9.12723 34.8075 9.36748C34.7258 9.60773 34.7234 9.86565 34.8006 10.1148C34.8778 10.364 35.0319 10.5955 35.2469 10.7857C35.462 10.9758 35.7304 11.1177 36.0247 11.1969L42.4517 12.9716C42.7442 13.0534 43.053 13.0702 43.3464 13.0203C43.6398 12.9703 43.9074 12.8554 44.122 12.6871C44.3366 12.5189 44.4904 12.3035 44.5679 12.0627C44.6454 11.8219 44.6437 11.5644 44.563 11.3165V11.3165Z" fill="#FF9F37"/>
<path d="M43.7472 35.3832C43.7508 36.4635 43.3999 37.3739 42.6945 38.1144C42.0017 38.8549 41.0615 39.3178 39.8739 39.5031L39.8781 40.7792C39.8792 41.0898 39.7915 41.3393 39.6152 41.5278C39.4389 41.7298 39.2054 41.8304 38.9146 41.8294C38.6239 41.8285 38.3897 41.7265 38.212 41.5234C38.0345 41.3337 37.9451 41.0836 37.9441 40.773L37.94 39.5374C37.2193 39.4676 36.5172 39.3033 35.8337 39.0446C35.1503 38.7858 34.5614 38.4463 34.067 38.0261C33.9023 37.9041 33.788 37.7687 33.7243 37.6199C33.6606 37.4712 33.6284 37.2888 33.6277 37.0727C33.6268 36.7891 33.7018 36.5395 33.8528 36.3239C34.0164 36.1084 34.1993 36.001 34.4016 36.0016C34.528 36.002 34.6418 36.0294 34.7431 36.0837C34.857 36.1246 35.0026 36.1993 35.18 36.3079C35.7628 36.7149 36.3326 37.0138 36.8894 37.2046C37.4589 37.3955 38.0533 37.4919 38.6727 37.4939C39.5196 37.4966 40.17 37.3231 40.6239 36.9734C41.0905 36.6238 41.3227 36.1182 41.3205 35.4565C41.3192 35.0648 41.1917 34.7471 40.9381 34.5032C40.6845 34.2593 40.3678 34.0693 39.9882 33.933C39.6084 33.7833 39.077 33.6128 38.3937 33.4215C37.4448 33.1619 36.6729 32.9029 36.0779 32.6444C35.4829 32.3725 34.9696 31.9657 34.5381 31.4242C34.1065 30.8826 33.8892 30.1527 33.8861 29.2345C33.8825 28.1406 34.246 27.21 34.9766 26.4426C35.7072 25.6752 36.6663 25.1989 37.8539 25.0136L37.8497 23.7374C37.8487 23.4268 37.9363 23.1773 38.1127 22.9888C38.289 22.7868 38.5225 22.6863 38.8132 22.6872C39.1039 22.6881 39.3381 22.7902 39.5158 22.9933C39.6934 23.1829 39.7827 23.433 39.7837 23.7436L39.7879 24.9995C41.0652 25.1791 42.1666 25.6755 43.092 26.4887C43.3962 26.7327 43.5489 27.0506 43.5502 27.4422C43.5512 27.7258 43.4698 27.9753 43.3062 28.1909C43.1553 28.4065 42.9723 28.5139 42.7574 28.5132C42.6437 28.5129 42.5298 28.4923 42.4159 28.4514C42.3147 28.4105 42.1754 28.3291 41.998 28.207C41.4784 27.8137 40.9845 27.5218 40.5161 27.3312C40.0604 27.1272 39.5165 27.0242 38.8845 27.0222C38.1007 27.0197 37.4757 27.2068 37.0092 27.5834C36.5427 27.9465 36.3105 28.4522 36.3127 29.1004C36.3142 29.546 36.4481 29.9111 36.7145 30.1955C36.9808 30.4664 37.3165 30.6768 37.7215 30.8266C38.1265 30.9765 38.6769 31.147 39.3728 31.3383C40.2964 31.5843 41.0493 31.8365 41.6317 32.095C42.214 32.3534 42.7083 32.7466 43.1145 33.2745C43.5334 33.789 43.7443 34.4919 43.7472 35.3832Z" fill="#FF9F37"/>
<path d="M16.9495 34.4244C17.2097 34.4209 17.4252 34.5357 17.5959 34.7691C17.7668 34.9876 17.8504 35.259 17.8466 35.583C17.8416 36.0102 17.6714 36.3586 17.3358 36.6283C16.6789 37.1821 15.98 37.6114 15.2393 37.916C14.4988 38.2059 13.7526 38.356 13.0008 38.3662C11.5262 38.3863 10.3101 37.9315 9.3525 37.002C8.40932 36.0723 7.7816 34.7407 7.46933 33.0071L6.05979 33.0263C5.81402 33.0296 5.60534 32.9515 5.43374 32.7918C5.26232 32.6174 5.17807 32.405 5.18098 32.1546C5.1839 31.9042 5.27304 31.6968 5.44841 31.5324C5.62378 31.368 5.83434 31.2842 6.08011 31.2808L7.29448 31.2643C7.28209 31.0877 7.27803 30.8153 7.28232 30.4471C7.2866 30.0788 7.29701 29.8062 7.31352 29.6293L6.09915 29.6458C5.85338 29.6492 5.6447 29.571 5.4731 29.4113C5.30168 29.2369 5.21734 29.0319 5.22008 28.7962C5.223 28.5458 5.31214 28.3384 5.48751 28.174C5.66305 27.9949 5.8737 27.9037 6.11947 27.9003L7.52901 27.8811C7.88158 26.1532 8.54766 24.8113 9.52724 23.8555C10.5068 22.8996 11.7267 22.4117 13.1868 22.3918C13.9241 22.3818 14.6669 22.5189 15.4153 22.8033C16.1638 23.0729 16.8529 23.4759 17.4827 24.0122C17.6544 24.1572 17.7755 24.3102 17.8459 24.4712C17.9309 24.6173 17.9721 24.8082 17.9693 25.0439C17.9655 25.3679 17.8755 25.649 17.6993 25.887C17.5233 26.1103 17.3051 26.2238 17.0449 26.2273C16.9003 26.2293 16.7633 26.2091 16.6337 26.1666C16.5187 26.1093 16.368 26.0156 16.1816 25.8856C15.6229 25.4514 15.1134 25.1417 14.653 24.9565C14.2071 24.7711 13.7456 24.6817 13.2685 24.6882C12.4589 24.6992 11.8054 24.9658 11.3078 25.488C10.8249 25.9954 10.4833 26.7806 10.283 27.8437L13.0588 27.8059C13.319 27.8023 13.5276 27.8878 13.6845 28.0624C13.8561 28.2221 13.9405 28.4271 13.9376 28.6775C13.9346 28.9279 13.8455 29.1353 13.6701 29.2997C13.5092 29.4639 13.2987 29.5478 13.0384 29.5513L10.0892 29.5915C10.0727 29.7684 10.0623 30.041 10.058 30.4093C10.0537 30.7775 10.0578 31.0499 10.0702 31.2265L13.0194 31.1863C13.2796 31.1828 13.4883 31.261 13.6454 31.4208C13.817 31.5805 13.9014 31.7855 13.8985 32.0359C13.8955 32.2863 13.8063 32.5011 13.6308 32.6802C13.4699 32.8444 13.2593 32.9283 12.9991 32.9318L10.2234 32.9696C10.3988 34.0423 10.722 34.8332 11.1931 35.3422C11.6788 35.8364 12.3264 36.0779 13.136 36.0669C13.5842 36.0608 14.0262 35.959 14.4622 35.7616C14.9127 35.5493 15.4513 35.2253 16.0779 34.7897C16.2674 34.6546 16.4203 34.5642 16.5364 34.5184C16.6672 34.4577 16.8049 34.4264 16.9495 34.4244Z" fill="#FF9F37"/>
</svg>
