<svg width="1066" height="162" viewBox="0 0 1066 162" fill="none" xmlns="http://www.w3.org/2000/svg">
<path d="M221.837 32.6195C218.188 32.6195 215.133 31.4998 212.683 29.2527C210.226 27.0081 209 24.0618 209 20.4138C209 16.7657 210.226 13.8575 212.683 11.6814C215.136 9.5103 218.188 8.42084 221.837 8.42084H315.282C318.93 8.42084 321.983 9.54068 324.435 11.7878C326.89 14.0323 328.121 16.9786 328.121 20.6216C328.121 24.2747 326.89 27.1855 324.435 29.3566C321.98 31.5327 318.93 32.6195 315.282 32.6195H221.837ZM268.351 155.736C264.42 155.736 261.195 154.509 258.674 152.055C256.146 149.6 254.882 146.547 254.882 142.902V20.8319H282.242V142.902C282.242 146.547 280.942 149.602 278.351 152.055C275.746 154.509 272.42 155.736 268.351 155.736Z" fill="#FF9F37"/>
<path d="M348.112 155.735C344.464 155.735 341.449 154.509 339.065 152.054C336.676 149.6 335.485 146.547 335.485 142.901V55.9769C335.485 52.334 336.676 49.2813 339.065 46.824C341.449 44.3666 344.464 43.143 348.112 43.143C351.76 43.143 354.774 44.3666 357.163 46.824C359.545 49.2839 360.74 52.334 360.74 55.9769V75.7649L359.266 61.6618C360.806 58.2975 362.805 55.3182 365.265 52.719C367.717 50.1274 370.489 47.9513 373.577 46.1982C376.663 44.4477 379.961 43.1454 383.467 42.3043C386.971 41.4582 390.482 41.0403 393.988 41.0403C398.196 41.0403 401.74 42.2385 404.616 44.6198C407.491 47.0062 408.932 49.8107 408.932 53.0357C408.932 57.6667 407.737 61.003 405.353 63.0323C402.966 65.0666 400.37 66.0825 397.568 66.0825C394.898 66.0825 392.481 65.596 390.307 64.608C388.131 63.6276 385.641 63.1362 382.834 63.1362C380.311 63.1362 377.747 63.7366 375.153 64.9247C372.556 66.1205 370.175 67.9774 368.001 70.4981C365.822 73.0315 364.069 76.1526 362.739 79.8716C361.404 83.5829 360.74 87.9656 360.74 93.0197V142.899C360.74 146.544 359.545 149.6 357.163 152.052C354.774 154.509 351.76 155.735 348.112 155.735Z" fill="#FF9F37"/>
<path d="M515.424 41.0378C519.07 41.0378 522.087 42.2361 524.474 44.6174C526.857 47.0039 528.051 50.0869 528.051 53.8743V142.902C528.051 146.547 526.857 149.602 524.474 152.055C522.087 154.509 519.07 155.736 515.424 155.736C511.776 155.736 508.759 154.509 506.375 152.055C503.991 149.6 502.796 146.547 502.796 142.902V132.591L507.429 134.478C507.429 136.307 506.441 138.516 504.48 141.11C502.517 143.705 499.854 146.268 496.485 148.792C493.118 151.317 489.151 153.461 484.596 155.211C480.033 156.964 475.086 157.841 469.758 157.841C460.081 157.841 451.31 155.35 443.452 150.37C435.591 145.387 429.381 138.514 424.824 129.748C420.261 120.978 417.984 110.908 417.984 99.5381C417.984 88.0417 420.261 77.9032 424.824 69.1352C429.381 60.3647 435.522 53.4893 443.241 48.5062C450.956 43.5231 459.513 41.0353 468.917 41.0353C474.949 41.0353 480.489 41.9498 485.543 43.7738C490.595 45.5953 494.98 47.9109 498.699 50.7178C502.413 53.5248 505.291 56.3671 507.328 59.2374C509.357 62.1153 510.375 64.5373 510.375 66.4981L502.798 69.234V53.8718C502.798 50.2289 503.994 47.1762 506.378 44.7138C508.759 42.2666 511.776 41.0378 515.424 41.0378ZM472.915 134.696C479.086 134.696 484.489 133.151 489.118 130.063C493.746 126.974 497.356 122.769 499.956 117.436C502.547 112.106 503.847 106.143 503.847 99.5432C503.847 92.8146 502.547 86.7826 499.956 81.4499C497.356 76.1172 493.746 71.9068 489.118 68.8212C484.489 65.7355 479.083 64.1902 472.915 64.1902C466.878 64.1902 461.55 65.7355 456.916 68.8212C452.288 71.9093 448.676 76.1172 446.081 81.4499C443.482 86.7801 442.19 92.8121 442.19 99.5432C442.19 106.143 443.482 112.109 446.081 117.436C448.676 122.769 452.288 126.977 456.916 130.063C461.547 133.148 466.878 134.696 472.915 134.696Z" fill="#FF9F37"/>
<path d="M615.601 41.0378C625.983 41.0378 633.874 43.209 639.275 47.5587C644.676 51.9136 648.4 57.6998 650.432 64.9224C652.464 72.1526 653.482 80.1807 653.482 89.0196V142.902C653.482 146.547 652.289 149.602 649.905 152.055C647.516 154.509 644.499 155.736 640.856 155.736C637.205 155.736 634.188 154.509 631.807 152.055C629.42 149.6 628.23 146.547 628.23 142.902V89.0196C628.23 84.3911 627.629 80.2162 626.441 76.5023C625.248 72.7859 623.107 69.8015 620.022 67.557C616.934 65.3099 612.515 64.1876 606.765 64.1876C601.153 64.1876 596.416 65.3099 592.558 67.557C588.699 69.8041 585.751 72.7859 583.719 76.5023C581.687 80.2187 580.669 84.3911 580.669 89.0196V142.902C580.669 146.547 579.475 149.602 577.094 152.055C574.703 154.509 571.69 155.736 568.045 155.736C564.394 155.736 561.377 154.509 558.993 152.055C556.609 149.6 555.414 146.547 555.414 142.902V55.9771C555.414 52.3341 556.609 49.2815 558.993 46.8241C561.377 44.3668 564.394 43.1431 568.045 43.1431C571.69 43.1431 574.703 44.3668 577.094 46.8241C579.475 49.284 580.669 52.3341 580.669 55.9771V65.0263L577.512 64.3979C578.776 62.0115 580.598 59.4528 582.984 56.7193C585.368 53.9832 588.172 51.4195 591.402 49.0382C594.625 46.6517 598.273 44.7162 602.347 43.2469C606.407 41.7725 610.828 41.0378 615.601 41.0378Z" fill="#FF9F37"/>
<path d="M674.317 138.268C672.913 136.307 672.28 133.781 672.422 130.691C672.561 127.613 674.383 124.94 677.894 122.698C680.139 121.292 682.523 120.697 685.051 120.909C687.577 121.12 690.031 122.419 692.418 124.801C696.481 128.869 700.763 132.031 705.252 134.27C709.738 136.52 715.352 137.645 722.088 137.645C724.196 137.498 726.509 137.186 729.032 136.695C731.561 136.203 733.77 135.078 735.662 133.323C737.555 131.572 738.505 128.869 738.505 125.226C738.505 122.138 737.453 119.683 735.348 117.852C733.245 116.035 730.469 114.49 727.034 113.223C723.596 111.962 719.776 110.773 715.57 109.649C711.215 108.387 706.757 106.989 702.204 105.438C697.642 103.898 693.469 101.902 689.682 99.4392C685.894 96.9895 682.804 93.729 680.422 89.6579C678.038 85.5893 676.845 80.4719 676.845 74.2931C676.845 67.2808 678.806 61.3172 682.735 56.4025C686.665 51.4928 691.754 47.7081 697.994 45.0431C704.233 42.3754 710.797 41.0428 717.673 41.0428C722.018 41.0428 726.58 41.5647 731.353 42.6186C736.123 43.6724 740.681 45.3545 745.033 47.6675C749.378 49.988 753.028 53.0383 755.972 56.8282C757.515 58.9283 758.429 61.4566 758.708 64.4029C758.989 67.3517 757.657 70.0142 754.713 72.4006C752.605 74.0879 750.148 74.8201 747.344 74.6073C744.539 74.3945 742.224 73.4495 740.4 71.7673C738.016 68.6842 734.824 66.2244 730.829 64.4029C726.828 62.5763 722.228 61.6643 717.04 61.6643C714.937 61.6643 712.659 61.9127 710.202 62.4067C707.745 62.8982 705.607 63.947 703.785 65.5607C701.958 67.177 701.046 69.7331 701.046 73.2418C701.046 76.4693 702.103 79.0279 704.206 80.9229C706.308 82.8204 709.151 84.3607 712.728 85.5514C716.307 86.7497 720.128 87.9023 724.199 89.0221C728.404 90.1469 732.686 91.4819 737.033 93.0222C741.383 94.5675 745.38 96.5993 749.028 99.125C752.674 101.648 755.62 104.911 757.867 108.914C760.112 112.904 761.234 117.996 761.234 124.17C761.234 131.321 759.129 137.424 754.923 142.481C750.713 147.53 745.451 151.355 739.138 153.949C732.827 156.544 726.37 157.841 719.776 157.841C711.491 157.841 703.218 156.399 694.941 153.524C686.662 150.656 679.789 145.564 674.317 138.268Z" fill="#FF9F37"/>
<path d="M842.473 45.2508C845.837 45.2508 848.644 46.3351 850.886 48.5087C853.133 50.6823 854.253 53.4487 854.253 56.8232C854.253 60.1849 853.133 62.9615 850.886 65.13C848.642 67.3087 845.837 68.3955 842.473 68.3955H786.699C783.329 68.3955 780.522 67.3087 778.283 65.13C776.036 62.9615 774.914 60.1849 774.914 56.8232C774.914 53.4487 776.036 50.6823 778.283 48.5087C780.522 46.3351 783.329 45.2508 786.699 45.2508H842.473ZM840.155 0C843.241 0 846.26 0.417968 849.207 1.26158C852.151 2.10265 854.605 3.47328 856.571 5.36823C858.535 7.25558 859.515 9.75083 859.515 12.8339C859.515 16.3426 858.502 19.1141 856.465 21.1535C854.425 23.1877 852.08 24.1986 849.417 24.1986C848.155 24.1986 846.26 23.887 843.735 23.2511C841.209 22.6228 838.749 22.3062 836.368 22.3062C832.859 22.3062 830.158 23.079 828.266 24.6243C826.371 26.1646 825.069 27.9556 824.372 29.9848C823.67 32.0267 823.321 33.8102 823.321 35.3555V142.899C823.321 146.544 822.128 149.6 819.744 152.052C817.357 154.507 814.338 155.733 810.695 155.733C807.047 155.733 804.029 154.507 801.648 152.052C799.259 149.597 798.068 146.544 798.068 142.899V35.5633C798.068 25.5996 801.572 17.1812 808.592 10.3057C815.602 3.44028 826.125 0 840.155 0Z" fill="#FF9F37"/>
<path d="M922.023 157.841C910.096 157.841 899.75 155.35 890.982 150.37C882.209 145.387 875.475 138.618 870.776 130.06C866.071 121.502 863.725 111.822 863.725 101.018C863.725 88.3913 866.281 77.622 871.404 68.7122C876.524 59.8049 883.225 52.9599 891.506 48.1896C899.783 43.4243 908.55 41.0353 917.812 41.0353C924.967 41.0353 931.733 42.5071 938.12 45.456C944.506 48.3972 950.151 52.4355 955.063 57.5579C959.973 62.6778 963.864 68.6008 966.742 75.3395C969.617 82.0732 971.059 89.2248 971.059 96.8096C970.914 100.176 969.587 102.908 967.058 105.013C964.535 107.115 961.586 108.169 958.222 108.169H877.828L871.513 87.1246H948.75L944.121 91.3325V85.6552C943.838 81.5816 942.401 77.9362 939.807 74.7113C937.21 71.4888 933.985 68.925 930.125 67.03C926.266 65.13 922.162 64.1851 917.815 64.1851C913.607 64.1851 909.675 64.7526 906.03 65.8672C902.379 66.9921 899.223 68.887 896.558 71.5495C893.893 74.2222 891.79 77.7994 890.247 82.2809C888.704 86.775 887.934 92.4599 887.934 99.3278C887.934 106.91 889.515 113.325 892.669 118.584C895.823 123.851 899.897 127.846 904.875 130.587C909.853 133.318 915.15 134.691 920.761 134.691C925.952 134.691 930.089 134.265 933.175 133.424C936.263 132.586 938.756 131.567 940.651 130.369C942.546 129.183 944.261 128.163 945.804 127.319C948.329 126.062 950.713 125.424 952.963 125.424C956.048 125.424 958.607 126.483 960.639 128.583C962.673 130.686 963.694 133.146 963.694 135.952C963.694 139.74 961.728 143.178 957.799 146.263C954.148 149.351 949.028 152.05 942.437 154.36C935.84 156.683 929.035 157.841 922.023 157.841Z" fill="#FF9F37"/>
<path d="M1004.73 155.735C1001.08 155.735 998.059 154.509 995.678 152.054C993.294 149.6 992.101 146.547 992.101 142.901V55.9769C992.101 52.334 993.294 49.2813 995.678 46.824C998.059 44.3666 1001.08 43.143 1004.73 43.143C1008.38 43.143 1011.39 44.3666 1013.77 46.824C1016.16 49.2839 1017.36 52.334 1017.36 55.9769V75.7649L1015.88 61.6618C1017.42 58.2975 1019.42 55.3182 1021.88 52.719C1024.33 50.1274 1027.1 47.9513 1030.19 46.1982C1033.28 44.4477 1036.57 43.1454 1040.08 42.3043C1043.59 41.4582 1047.1 41.0403 1050.6 41.0403C1054.81 41.0403 1058.36 42.2385 1061.23 44.6198C1064.11 47.0062 1065.55 49.8107 1065.55 53.0357C1065.55 57.6667 1064.35 61.003 1061.97 63.0323C1059.58 65.0666 1056.99 66.0825 1054.18 66.0825C1051.51 66.0825 1049.09 65.596 1046.92 64.608C1044.75 63.6276 1042.25 63.1362 1039.45 63.1362C1036.92 63.1362 1034.36 63.7366 1031.77 64.9247C1029.17 66.1205 1026.79 67.9774 1024.62 70.4981C1022.44 73.0315 1020.68 76.1526 1019.35 79.8716C1018.02 83.5829 1017.36 87.9656 1017.36 93.0197V142.899C1017.36 146.544 1016.16 149.6 1013.77 152.052C1011.39 154.504 1008.38 155.735 1004.73 155.735Z" fill="#FF9F37"/>
<path d="M81.3911 68.043V72.305L86.0731 68.043H81.3911Z" fill="#FF9F37"/>
<path d="M104.288 56.119C101.383 49.305 97.435 43.292 92.465 38.121C87.494 32.912 81.776 28.838 75.324 25.859C71.925 24.287 68.434 23.135 64.816 22.404V10.508C64.816 7.603 63.647 4.97199 61.747 3.08899C59.847 1.17099 57.233 0 54.328 0C48.535 0 43.82 4.697 43.82 10.508V22.532C38.412 23.682 33.167 25.712 28.124 28.617C19.735 33.46 12.956 40.386 7.784 49.412C2.576 58.423 0 69.313 0 82.105C0 93.032 2.37602 102.844 7.14502 111.506C11.897 120.167 18.712 127.039 27.594 132.082C32.509 134.878 37.918 136.888 43.821 138.112V150.519C43.821 153.424 45.009 156.039 46.91 157.939C48.81 159.84 51.424 161.027 54.329 161.027C60.121 161.027 64.817 156.33 64.817 150.519V139.355C69.879 138.899 74.85 137.821 79.674 136.122C86.362 133.765 91.552 131.023 95.243 127.917C99.208 124.792 101.219 121.302 101.219 117.465C101.219 114.633 100.177 112.148 98.112 110.009C96.065 107.889 93.47 106.829 90.327 106.829C88.062 106.829 85.65 107.47 83.091 108.747C81.539 109.59 79.783 110.612 77.884 111.837C75.965 113.025 73.425 114.066 70.319 114.906C67.192 115.765 62.989 116.185 57.726 116.185C52.043 116.185 46.689 114.796 41.646 112.038C36.602 109.26 32.49 105.221 29.292 99.903C27.428 96.798 26.094 93.27 25.326 89.36H95.662C99.06 89.36 102.039 88.282 104.616 86.144C107.174 84.024 108.527 81.246 108.654 77.848C108.655 70.172 107.193 62.918 104.288 56.119ZM26.845 63.136C28.416 58.605 30.535 54.968 33.222 52.264C35.945 49.576 39.124 47.659 42.834 46.526C46.506 45.392 50.49 44.827 54.766 44.827C59.17 44.827 63.319 45.776 67.211 47.696C71.121 49.615 74.393 52.21 77.024 55.48C79.656 58.734 81.099 62.424 81.392 66.553V68.052H25.565C25.893 66.281 26.332 64.635 26.845 63.136Z" fill="#FF9F37"/>
<path d="M188.805 129.387C191.989 129.387 194.637 130.45 196.76 132.571C198.879 134.692 199.944 137.342 199.944 140.524C199.944 143.578 198.88 146.126 196.76 148.182C194.637 150.238 191.989 151.263 188.805 151.263H121.19C117.741 151.263 115.024 150.203 113.037 148.081C111.049 145.961 110.054 143.241 110.054 139.928C110.054 136.615 111.248 133.699 113.633 131.177L156.987 84.839C161.761 79.669 165.602 74.4 168.521 69.031C171.435 63.66 172.897 58.658 172.897 54.014C172.897 49.908 171.902 46.194 169.914 42.876C167.926 39.564 165.34 36.912 162.157 34.921C158.976 32.935 155.525 31.939 151.818 31.939C147.968 31.939 144.06 33.233 140.086 35.819C136.106 38.405 132.592 41.819 129.544 46.06C127.952 48.182 126.361 49.51 124.771 50.039C123.179 50.568 121.719 50.833 120.394 50.833C117.477 50.833 114.793 49.739 112.34 47.553C109.887 45.364 108.661 42.814 108.661 39.898C108.661 37.642 109.42 35.455 110.948 33.335C112.47 31.215 114.361 29.026 116.617 26.772C121.654 21.734 127.487 17.69 134.117 14.64C140.746 11.592 147.109 10.067 153.209 10.067C162.223 10.067 169.979 11.924 176.477 15.634C182.971 19.346 188.01 24.453 191.59 30.947C195.172 37.446 196.961 44.801 196.961 53.021C196.961 58.589 195.932 64.258 193.879 70.024C191.822 75.792 189.006 81.393 185.428 86.83C181.846 92.268 177.737 97.505 173.097 102.541L146.247 131.178L144.06 129.388H188.805V129.387Z" fill="white"/>
</svg>
