<svg width="55" height="69" viewBox="0 0 55 69" fill="none" xmlns="http://www.w3.org/2000/svg">
<path d="M33 35.2654C32.447 35.2654 32 35.774 32 36.4032V52.3378H2V9.10222H32V25.0288C32 25.658 32.447 26.1666 33 26.1666C33.553 26.1666 34 25.658 34 25.0288V5.01191C34 2.24939 32.023 0 29.595 0H4.405C1.977 0 0 2.24939 0 5.01191V63.2536C0 66.0173 1.977 68.2667 4.405 68.2667H29.594C32.023 68.2667 33.999 66.0173 33.999 63.2548V36.4032C34 35.774 33.553 35.2654 33 35.2654ZM4.405 2.27556H29.594C30.921 2.27556 32 3.50322 32 5.01191V6.82667H2V5.01191C2 3.50322 3.079 2.27556 4.405 2.27556ZM29.595 65.9911H4.405C3.079 65.9911 2 64.7634 2 63.2548V54.6133H32V63.2548C32 64.7634 30.921 65.9911 29.595 65.9911Z" fill="#FF9F37"/>
<path d="M17 55.7511C14.794 55.7511 13 57.7923 13 60.3022C13 62.8122 14.794 64.8533 17 64.8533C19.206 64.8533 21 62.8122 21 60.3022C21 57.7923 19.206 55.7511 17 55.7511ZM17 62.5778C15.897 62.5778 15 61.5572 15 60.3022C15 59.0472 15.897 58.0267 17 58.0267C18.103 58.0267 19 59.0472 19 60.3022C19 61.5572 18.103 62.5778 17 62.5778Z" fill="#FF9F37"/>
<path d="M13 5.68887H17C17.553 5.68887 18 5.18029 18 4.5511C18 3.92191 17.553 3.41333 17 3.41333H13C12.447 3.41333 12 3.92191 12 4.5511C12 5.18029 12.447 5.68887 13 5.68887Z" fill="#FF9F37"/>
<path d="M20 5.68887H21C21.553 5.68887 22 5.18029 22 4.5511C22 3.92191 21.553 3.41333 21 3.41333H20C19.447 3.41333 19 3.92191 19 4.5511C19 5.18029 19.447 5.68887 20 5.68887Z" fill="#FF9F37"/>
<path d="M54 29.5822H18.414L28.707 17.8711C29.098 17.4262 29.098 16.7071 28.707 16.2622C28.316 15.8174 27.684 15.8174 27.293 16.2622L15.294 29.9144C15.201 30.0203 15.128 30.1466 15.077 30.2865C14.976 30.5641 14.976 30.8781 15.077 31.1558C15.128 31.2957 15.201 31.422 15.294 31.5278L27.293 45.18C27.488 45.3996 27.744 45.5111 28 45.5111C28.256 45.5111 28.512 45.3996 28.707 45.1777C29.098 44.7329 29.098 44.0138 28.707 43.5689L18.414 31.8578H54C54.553 31.8578 55 31.3492 55 30.72C55 30.0908 54.553 29.5822 54 29.5822Z" fill="#FF9F37"/>
</svg>
