<svg width="112" height="115" viewBox="0 0 112 115" fill="none" xmlns="http://www.w3.org/2000/svg">
<g clip-path="url(#clip0_26_9256)" filter="url(#filter0_d_26_9256)">
<path d="M102.691 76.7608C106.093 69.7272 108 61.8366 108 53.5C108 45.1634 106.093 37.2728 102.691 30.2392L54.5 25.587L6.30862 30.2392C2.9074 37.2728 1 45.1634 1 53.5C1 61.8366 2.9074 69.7272 6.30862 76.7608L54.5 81.413L102.691 76.7608Z" fill="#0052B4"/>
<path d="M54.5 107C75.7104 107 94.0377 94.6563 102.691 76.7608H6.30859C14.9622 94.6563 33.2893 107 54.5 107Z" fill="#D80027"/>
<path d="M93.6568 64.0019L90.8311 66.21L92.0574 69.5791L89.0842 67.5743L86.2583 69.782L87.2464 66.3348L84.2736 64.3294L87.8574 64.2044L88.8463 60.7572L90.0731 64.1269L93.6568 64.0019Z" fill="#F0F0F0"/>
<path d="M86.4205 51.4691L84.5206 54.5104L86.826 57.2569L83.3462 56.3905L81.4456 59.431L81.1951 55.8538L77.7157 54.9859L81.0411 53.6423L80.7911 50.0649L83.096 52.8125L86.4205 51.4691Z" fill="#F0F0F0"/>
<path d="M75.3345 42.1666L74.5893 45.6744L77.6948 47.4675L74.1285 47.8434L73.3828 51.3502L71.9241 48.0746L68.3574 48.4488L71.0227 46.0493L69.5642 42.7737L72.6697 44.5663L75.3345 42.1666Z" fill="#F0F0F0"/>
<path d="M61.7354 37.2174L62.2351 40.7687L65.7663 41.391L62.5434 42.9638L63.0426 46.5149L60.5515 43.9352L57.3278 45.5072L59.0117 42.3404L56.5204 39.7612L60.0523 40.3837L61.7354 37.2174Z" fill="#F0F0F0"/>
<path d="M47.2643 37.2174L48.9481 40.3837L52.4791 39.7607L49.9886 42.3411L51.6716 45.5076L48.4486 43.9352L45.9571 46.5143L46.4568 42.9639L43.2336 41.3919L46.7653 40.7687L47.2643 37.2174Z" fill="#F0F0F0"/>
<path d="M33.6653 42.1666L36.3307 44.5663L39.4356 42.7737L37.9775 46.0505L40.6422 48.4497L37.0759 48.0746L35.6168 51.3502L34.8722 47.8428L31.3057 47.4683L34.4112 45.6748L33.6653 42.1666Z" fill="#F0F0F0"/>
<path d="M22.5793 51.4691L25.9049 52.8124L28.2091 50.0656L27.9598 53.6436L31.2843 54.9871L27.805 55.8542L27.5544 59.431L25.6547 56.3905L22.1749 57.2575L24.48 54.5104L22.5793 51.4691Z" fill="#F0F0F0"/>
<path d="M15.3434 64.0019L18.9279 64.1269L20.1538 60.7576L21.1434 64.205L24.7268 64.3302L21.7538 66.3356L22.7419 69.7826L19.9164 67.5749L16.9432 69.5797L18.1697 66.21L15.3434 64.0019Z" fill="#F0F0F0"/>
<path d="M102.691 30.2392C94.0377 12.3437 75.7104 0 54.5 0C33.2893 0 14.9622 12.3437 6.30859 30.2392H102.691Z" fill="#FFDA44"/>
</g>
<defs>
<filter id="filter0_d_26_9256" x="-3" y="0" width="115" height="115" filterUnits="userSpaceOnUse" color-interpolation-filters="sRGB">
<feFlood flood-opacity="0" result="BackgroundImageFix"/>
<feColorMatrix in="SourceAlpha" type="matrix" values="0 0 0 0 0 0 0 0 0 0 0 0 0 0 0 0 0 0 127 0" result="hardAlpha"/>
<feOffset dy="4"/>
<feGaussianBlur stdDeviation="2"/>
<feComposite in2="hardAlpha" operator="out"/>
<feColorMatrix type="matrix" values="0 0 0 0 0 0 0 0 0 0 0 0 0 0 0 0 0 0 0.25 0"/>
<feBlend mode="normal" in2="BackgroundImageFix" result="effect1_dropShadow_26_9256"/>
<feBlend mode="normal" in="SourceGraphic" in2="effect1_dropShadow_26_9256" result="shape"/>
</filter>
<clipPath id="clip0_26_9256">
<rect width="107" height="107" fill="white" transform="translate(1)"/>
</clipPath>
</defs>
</svg>
