<svg width="120" height="120" viewBox="0 0 120 120" fill="none" xmlns="http://www.w3.org/2000/svg">
<path d="M82.44 30.5L69.18 43.76C66.3666 42.1752 63.1898 41.3484 59.9608 41.3607C56.7317 41.373 53.5613 42.2239 50.76 43.83L37.44 30.5C35.9409 28.9999 35.0987 26.9658 35.0987 24.845C35.0987 22.7242 35.9409 20.6901 37.44 19.19L54.28 2.35C55.7802 0.850842 57.8142 0.00870705 59.935 0.00870705C62.0558 0.00870705 64.0899 0.850842 65.59 2.35V2.35L82.44 19.19C83.9392 20.6901 84.7813 22.7242 84.7813 24.845C84.7813 26.9658 83.9392 28.9999 82.44 30.5V30.5Z" fill="#3A3973"/>
<path d="M117.34 65.54L100.49 82.39C98.9899 83.8892 96.9558 84.7313 94.835 84.7313C92.7142 84.7313 90.6801 83.8892 89.18 82.39L76.18 69.39C77.8429 66.5123 78.7092 63.2436 78.6899 59.9201C78.6705 56.5965 77.7662 53.3381 76.07 50.48L89.18 37.39C90.6801 35.8908 92.7142 35.0487 94.835 35.0487C96.9558 35.0487 98.9899 35.8908 100.49 37.39L117.34 54.23C118.839 55.7301 119.681 57.7642 119.681 59.885C119.681 62.0058 118.839 64.0399 117.34 65.54V65.54Z" fill="#FE4F6C"/>
<path d="M82.34 100.54L65.49 117.39C63.9899 118.889 61.9558 119.731 59.835 119.731C57.7142 119.731 55.6801 118.889 54.18 117.39L37.34 100.54C36.4914 99.6975 35.8481 98.671 35.46 97.54L22.13 104.65L36.31 90.48C36.6041 90.0458 36.9389 89.6406 37.31 89.27L50.5 76.07C53.3406 77.761 56.5803 78.6653 59.886 78.6899C63.1918 78.7145 66.4445 77.8586 69.31 76.21L82.31 89.21C83.8158 90.7035 84.667 92.7338 84.6763 94.8547C84.6857 96.9755 83.8526 99.0132 82.36 100.52L82.34 100.54Z" fill="#3A3973"/>
<path d="M41.36 60C41.3538 63.4423 42.306 66.8183 44.11 69.75L31.49 82.39C30.9032 82.9775 30.2284 83.4701 29.49 83.85L15.21 98.12L22.69 84.12C21.7526 83.7185 20.9007 83.1415 20.18 82.42L3.34001 65.54C1.84085 64.0399 0.998718 62.0058 0.998718 59.885C0.998718 57.7642 1.84085 55.7301 3.34001 54.23L20.18 37.39C21.6802 35.8908 23.7142 35.0487 25.835 35.0487C27.9558 35.0487 29.9899 35.8908 31.49 37.39L44.22 50.11C42.3511 53.0701 41.3595 56.4993 41.36 60Z" fill="#FE4F6C"/>
<path d="M70.82 60C70.8184 60.883 70.711 61.7626 70.5 62.62V62.62C70.0156 64.5389 69.0133 66.2877 67.6025 67.6756C66.1916 69.0636 64.4266 70.0371 62.5 70.49C59.8875 71.1176 57.1348 70.748 54.7805 69.4534C52.4261 68.1587 50.6394 66.0323 49.77 63.49V63.49C49.3697 62.3669 49.17 61.1822 49.18 59.99C49.1772 58.7452 49.3938 57.5096 49.82 56.34C50.4445 54.5746 51.5163 53.0016 52.9309 51.7746C54.3454 50.5476 56.0542 49.7087 57.89 49.34V49.34C58.5841 49.2275 59.2872 49.1806 59.99 49.2C60.6613 49.1983 61.3311 49.2619 61.99 49.39V49.39C63.9818 49.7727 65.8258 50.708 67.3113 52.0891C68.7967 53.4701 69.8636 55.2413 70.39 57.2V57.2C70.6579 58.1099 70.8025 59.0516 70.82 60V60Z" fill="#3A3973"/>
</svg>
